# xmcd
#
# Track frame offsets:
#  150
#  19427
#  38700
#  54073
#  74560
#  93937
#  111433
#  121237
#  139016
#  155017
#  170357
#  189166
#  211012
#
# Disc length: 3085 seconds
#
# Revision: 0
# Processed by: cddbd v1.5.2PL0 Copyright (c) Steve Scherf et al.
# Submitted via: AltoMP3_Maker 3.0
#
DISCID=ab0c0b0d
DTITLE=Phil Campbell - Joy
DYEAR=1900
DGENRE=
TTITLE0=Maps
TTITLE1=Joy
TTITLE2=Sweet Sister
TTITLE3=Cold Engines
TTITLE4=A Little Hand
TTITLE5=Isn`t She Beautiful
TTITLE6=Hey Mama
TTITLE7=Same Old Me
TTITLE8=After The Garden
TTITLE9=Baby blue
TTITLE10=Roses at yor feet
TTITLE11=Walls
TTITLE12=Should`ve Stayed at home
EXTD=
EXTT0=
EXTT1=
EXTT2=
EXTT3=
EXTT4=
EXTT5=
EXTT6=
EXTT7=
EXTT8=
EXTT9=
EXTT10=
EXTT11=
EXTT12=
PLAYORDER=
